<?xml version="1.0" encoding="UTF-8"?>
<svg version="1.1" xmlns="http://www.w3.org/2000/svg" width="410" height="62">
<path d="M0 0 C0.86625 0.12375 1.7325 0.2475 2.625 0.375 C3.77809549 2.68119098 3.76332146 4.02717821 3.78613281 6.59350586 C3.79574036 7.46458481 3.8053479 8.33566376 3.81524658 9.23313904 C3.81949646 10.17585159 3.82374634 11.11856415 3.828125 12.08984375 C3.83382507 13.05652481 3.83952515 14.02320587 3.84539795 15.0191803 C3.85485336 17.06607974 3.86138407 19.11299445 3.86523438 21.15991211 C3.87494991 24.29632988 3.90597233 27.43209522 3.9375 30.56835938 C3.94402892 32.5546836 3.94927983 34.54101252 3.953125 36.52734375 C3.9654718 37.46803207 3.9778186 38.4087204 3.99053955 39.37791443 C3.98753845 40.25214554 3.98453735 41.12637665 3.98144531 42.02709961 C3.98691376 43.18054115 3.98691376 43.18054115 3.99249268 44.35728455 C3.53370694 46.87624381 2.56144123 47.7654647 0.625 49.375 C-3.50324581 48.00378054 -5.91410598 46.15929044 -9 43.125 C-14.01476196 38.47644271 -19.20774177 35.2782742 -25.375 32.375 C-26.31520996 31.86396729 -27.25541992 31.35293457 -28.22412109 30.82641602 C-33.73662832 28.4899903 -39.63733584 28.89436858 -45.52734375 28.86328125 C-46.78261368 28.84533005 -48.03788361 28.82737885 -49.33119202 28.80888367 C-52.64708993 28.76403953 -55.96262313 28.73166223 -59.27868652 28.70544434 C-62.67095134 28.67551438 -66.06298628 28.62902727 -69.45507812 28.58398438 C-76.09494544 28.49915093 -82.73482832 28.43076195 -89.375 28.375 C-89.375 31.345 -89.375 34.315 -89.375 37.375 C-88.0432373 37.35405273 -86.71147461 37.33310547 -85.33935547 37.31152344 C-80.38585209 37.23897821 -75.43239544 37.19314714 -70.47851562 37.15527344 C-68.33683366 37.13519112 -66.1952063 37.10791963 -64.05371094 37.07324219 C-60.97056585 37.02457602 -57.88814738 37.0019971 -54.8046875 36.984375 C-53.85133514 36.96372986 -52.89798279 36.94308472 -51.91574097 36.92181396 C-46.0544287 36.91984741 -42.87529848 37.54372508 -38.375 41.375 C-34.90025679 45.04114856 -34.81534702 48.00638495 -34.9453125 52.89453125 C-35.64242743 56.91878559 -37.41433779 58.62581366 -40.375 61.375 C-42.82672295 62.60086148 -44.4784901 62.52823133 -47.22021484 62.56787109 C-48.22821136 62.58393402 -49.23620789 62.59999695 -50.27474976 62.61654663 C-54.88172791 62.66091758 -59.48856146 62.70204949 -64.09570312 62.72509766 C-66.5284175 62.74167548 -68.96108281 62.7689891 -71.39355469 62.80712891 C-74.89544011 62.86177162 -78.39618374 62.88375188 -81.8984375 62.8984375 C-82.98708099 62.92110687 -84.07572449 62.94377625 -85.19735718 62.96713257 C-92.7173664 62.94600245 -92.7173664 62.94600245 -96.06787109 60.03686523 C-97.65040137 56.81416676 -97.78208279 54.63613336 -97.625 51.0625 C-97.58890625 49.99386719 -97.5528125 48.92523438 -97.515625 47.82421875 C-97.46921875 47.01597656 -97.4228125 46.20773438 -97.375 45.375 C-98.07367188 45.39820313 -98.77234375 45.42140625 -99.4921875 45.4453125 C-100.40226562 45.46335938 -101.31234375 45.48140625 -102.25 45.5 C-103.15492187 45.52320313 -104.05984375 45.54640625 -104.9921875 45.5703125 C-107.375 45.375 -107.375 45.375 -109.375 43.375 C-109.125 40.8125 -109.125 40.8125 -108.375 38.375 C-105.96954362 37.17227181 -104.42503047 37.27428528 -101.75 37.3125 C-100.52410156 37.32603516 -100.52410156 37.32603516 -99.2734375 37.33984375 C-98.64695312 37.35144531 -98.02046875 37.36304688 -97.375 37.375 C-97.43300781 36.56675781 -97.49101563 35.75851563 -97.55078125 34.92578125 C-97.59589844 33.85714844 -97.64101562 32.78851563 -97.6875 31.6875 C-97.74550781 30.63175781 -97.80351563 29.57601563 -97.86328125 28.48828125 C-97.3595372 25.27640916 -96.65976493 23.64267122 -94.28315735 21.41423035 C-89.79318485 18.96887872 -84.14903611 19.76575677 -79.18359375 19.84375 C-77.20229223 19.83876255 -75.22099033 19.83374628 -73.23969364 19.82711029 C-69.0667732 19.82121381 -64.89403159 19.85962985 -60.72125244 19.89044189 C-57.29543395 19.91405576 -53.87024674 19.92756918 -50.4443512 19.9161377 C-47.88094134 19.9097181 -45.31735164 19.92497721 -42.7542572 19.96569824 C-32.03409318 19.93397194 -23.08368139 16.97553769 -14.5 10.4375 C-13.60152344 9.75816406 -12.70304687 9.07882812 -11.77734375 8.37890625 C-9.69470568 6.64168132 -7.88381898 4.87608552 -6.0625 2.875 C-3.375 0.375 -3.375 0.375 0 0 Z M-8.9375 16.0625 C-12.93255331 19.10394203 -17.07401385 21.78983279 -21.375 24.375 C-18.27408087 26.77049676 -15.05963115 28.90360291 -11.75 31 C-10.78835937 31.61101563 -9.82671875 32.22203125 -8.8359375 32.8515625 C-6.4895843 34.35543108 -6.4895843 34.35543108 -4.375 35.375 C-4.375 28.115 -4.375 20.855 -4.375 13.375 C-6.20424979 13.375 -7.54684381 14.98208805 -8.9375 16.0625 Z M-89.375 45.375 C-89.375 48.345 -89.375 51.315 -89.375 54.375 C-74.525 54.375 -59.675 54.375 -44.375 54.375 C-41.94457289 49.85445491 -41.94457289 49.85445491 -43.13012695 47.08691406 C-46.82916714 44.26606906 -50.77740164 44.88592915 -55.29296875 44.984375 C-56.75154045 44.99286469 -56.75154045 44.99286469 -58.23957825 45.00152588 C-61.347718 45.02393071 -64.45470824 45.07413519 -67.5625 45.125 C-69.66860315 45.14505967 -71.77472436 45.16331136 -73.88085938 45.1796875 C-79.04601636 45.22380907 -84.21031324 45.2928654 -89.375 45.375 Z " fill="#F44966" transform="translate(122.375,-0.375)"/>
<path d="M0 0 C1.98 0 3.96 0 6 0 C6.33 1.32 6.66 2.64 7 4 C7.928125 3.34 8.85625 2.68 9.8125 2 C14.65233169 -0.75998548 19.57109437 -0.86996331 25 0 C28.1875 2 28.1875 2 30 4 C30.5775 3.71125 31.155 3.4225 31.75 3.125 C32.86375 2.568125 32.86375 2.568125 34 2 C34.59683594 1.65710938 35.19367188 1.31421875 35.80859375 0.9609375 C40.04834147 -0.89820321 44.48952091 -0.74432448 49 0 C53.03297602 2.23115776 55.53820819 4.61462458 57 9 C57.08397157 11.35680213 57.10728187 13.71594081 57.09765625 16.07421875 C57.0962413 16.7580513 57.09482635 17.44188385 57.09336853 18.1464386 C57.08777876 20.32683722 57.07522822 22.50713251 57.0625 24.6875 C57.05748367 26.16731622 57.052921 27.64713406 57.04882812 29.12695312 C57.03781271 32.75133557 57.02055512 36.3756577 57 40 C54.36 40 51.72 40 49 40 C48.98541748 39.23856689 48.97083496 38.47713379 48.95581055 37.69262695 C48.88119459 34.23208112 48.78457741 30.77248555 48.6875 27.3125 C48.65366211 25.51522461 48.65366211 25.51522461 48.61914062 23.68164062 C48.58369141 22.52470703 48.54824219 21.36777344 48.51171875 20.17578125 C48.48553467 19.11270752 48.45935059 18.04963379 48.43237305 16.9543457 C47.94094351 13.59647512 47.09359576 11.66267563 45 9 C41.44304044 8.49186292 39.14012223 8.20191444 36.125 10.3125 C33.88151506 13.6777274 33.82313986 16.83449265 33.68359375 20.76171875 C33.62075195 22.43911133 33.62075195 22.43911133 33.55664062 24.15039062 C33.51732422 25.31763672 33.47800781 26.48488281 33.4375 27.6875 C33.37272461 29.45577148 33.37272461 29.45577148 33.30664062 31.25976562 C33.20048824 34.17305883 33.09843758 37.08643757 33 40 C30.36 40 27.72 40 25 40 C24.98018066 39.26885986 24.96036133 38.53771973 24.93994141 37.78442383 C24.84447086 34.46009731 24.73488034 31.13638014 24.625 27.8125 C24.5940625 26.66201172 24.563125 25.51152344 24.53125 24.32617188 C24.49257813 23.21435547 24.45390625 22.10253906 24.4140625 20.95703125 C24.36693115 19.42526245 24.36693115 19.42526245 24.31884766 17.86254883 C23.9608892 14.64887128 23.36632241 11.36632241 21 9 C16.2970309 8.51881839 16.2970309 8.51881839 12.125 10.3125 C9.88151506 13.6777274 9.82313986 16.83449265 9.68359375 20.76171875 C9.64169922 21.87998047 9.59980469 22.99824219 9.55664062 24.15039062 C9.51732422 25.31763672 9.47800781 26.48488281 9.4375 27.6875 C9.39431641 28.86634766 9.35113281 30.04519531 9.30664062 31.25976562 C9.20048824 34.17305883 9.09843758 37.08643757 9 40 C6.03 40 3.06 40 0 40 C0 26.8 0 13.6 0 0 Z " fill="#F54866" transform="translate(238,8)"/>
<path d="M0 0 C1.2065625 0.0309375 1.2065625 0.0309375 2.4375 0.0625 C2.7675 1.3825 3.0975 2.7025 3.4375 4.0625 C5.0153125 3.0725 5.0153125 3.0725 6.625 2.0625 C12.37686342 -0.78789057 18.16050025 -0.84652868 24.4375 0.0625 C30.68484426 2.47063902 34.97298974 6.76735191 37.6875 12.875 C39.28135108 19.64886708 39.06811408 26.01951775 35.4375 32.0625 C31.55931933 36.42010256 27.3192343 40.13987501 21.4375 41.0625 C16.05084991 40.96813533 11.18664611 40.78266819 6.4375 38.0625 C6.41171875 38.97773437 6.3859375 39.89296875 6.359375 40.8359375 C6.30265625 42.02445313 6.2459375 43.21296875 6.1875 44.4375 C6.11789062 46.21253906 6.11789062 46.21253906 6.046875 48.0234375 C5.4375 51.0625 5.4375 51.0625 3.703125 52.4765625 C1.20064861 53.12375467 -0.98785934 53.10247889 -3.5625 53.0625 C-3.58776692 45.67521898 -3.6053316 38.28794902 -3.61743164 30.90063477 C-3.62247363 28.38533105 -3.62930703 25.87003028 -3.63793945 23.35473633 C-3.65001094 19.74820225 -3.65572949 16.14170677 -3.66015625 12.53515625 C-3.66531754 11.40288101 -3.67047882 10.27060577 -3.67579651 9.10401917 C-3.67587204 8.06301559 -3.67594757 7.02201202 -3.67602539 5.94946289 C-3.678246 5.02790909 -3.68046661 4.10635529 -3.68275452 3.15687561 C-3.5035098 0.03511548 -3.14821153 0.07678565 0 0 Z M7.4375 12.0625 C5.05784658 15.09114981 5.07788135 18.31001112 5.18359375 22.1015625 C5.67266582 25.87870368 7.59651935 28.12448312 10.0625 30.875 C13.79269007 32.74009504 17.35177139 32.58874769 21.4375 32.0625 C24.9169963 30.70095797 26.14516749 29.47176552 28.3125 26.4375 C29.78457462 22.02127614 29.8002424 18.52014533 28.4375 14.0625 C25.87214804 10.82205542 24.350695 9.36689833 20.4375 8.0625 C14.74943253 7.52588986 11.83046699 8.38466717 7.4375 12.0625 Z " fill="#F54866" transform="translate(301.5625,7.9375)"/>
<path d="M0 0 C5.24341284 3.96453166 9.19226229 8.36035899 10.5625 14.9375 C10.5625 17.2475 10.5625 19.5575 10.5625 21.9375 C0.3325 21.9375 -9.8975 21.9375 -20.4375 21.9375 C-18.09901858 27.85481018 -18.09901858 27.85481018 -14.4375 29.9375 C-12.28959071 30.25350189 -12.28959071 30.25350189 -10 30.1875 C-9.23816406 30.19265625 -8.47632813 30.1978125 -7.69140625 30.203125 C-5.18368199 29.90758731 -3.57330751 29.27061941 -1.4375 27.9375 C-1.1075 27.2775 -0.7775 26.6175 -0.4375 25.9375 C2.8625 25.9375 6.1625 25.9375 9.5625 25.9375 C7.25968551 31.59858563 5.26338326 35.05132795 -0.1640625 38.02734375 C-5.63907072 40.21922849 -11.06071195 40.68093725 -16.6875 38.8125 C-21.80437226 36.51766032 -25.33494578 33.73833856 -28.3125 28.875 C-30.62425319 22.53498227 -30.60703067 14.79306413 -28 8.5625 C-21.80581507 -1.71812638 -10.89441943 -3.36736601 0 0 Z M-19.4375 10.9375 C-19.7675 12.2575 -20.0975 13.5775 -20.4375 14.9375 C-13.1775 14.9375 -5.9175 14.9375 1.5625 14.9375 C-0.69923729 9.23445608 -0.69923729 9.23445608 -3.34765625 7.5859375 C-9.46984592 5.6863422 -15.01361974 5.96063471 -19.4375 10.9375 Z " fill="#F44966" transform="translate(372.4375,9.0625)"/>
<path d="M0 0 C2.64 0 5.28 0 8 0 C8.01458252 0.69561035 8.02916504 1.3912207 8.04418945 2.10791016 C8.11897969 5.28081338 8.21553812 8.45270008 8.3125 11.625 C8.33505859 12.71941406 8.35761719 13.81382813 8.38085938 14.94140625 C8.62042929 22.8923258 8.62042929 22.8923258 12 30 C15.09173752 31.54586876 17.59429552 31.29359521 21 31 C24.20355289 28.63948734 25.27276106 26.82256826 26 23 C26.14442951 21.19540394 26.24605629 19.38712409 26.31640625 17.578125 C26.35830078 16.55332031 26.40019531 15.52851563 26.44335938 14.47265625 C26.48267578 13.40917969 26.52199219 12.34570312 26.5625 11.25 C26.60568359 10.17105469 26.64886719 9.09210937 26.69335938 7.98046875 C26.79928989 5.32043572 26.90136421 2.66031188 27 0 C29.64 0 32.28 0 35 0 C35.09957372 4.00171468 35.17179608 8.00294042 35.21972656 12.00561523 C35.23972628 13.36446713 35.26693576 14.72323424 35.30175781 16.08178711 C35.65389067 30.18263666 35.65389067 30.18263666 31 36 C25.32747136 40.49075184 21.16174047 41.47744936 14 41 C7.78841264 39.60652603 4.63044276 37.1706306 1 32 C-0.46098845 29.0780231 -0.11134901 26.50106525 -0.09765625 23.2421875 C-0.0962413 22.57913605 -0.09482635 21.91608459 -0.09336853 21.23294067 C-0.08776754 19.11358137 -0.075215 16.99432741 -0.0625 14.875 C-0.05748512 13.43880361 -0.05292219 12.00260556 -0.04882812 10.56640625 C-0.03779782 7.04423655 -0.02053259 3.52212855 0 0 Z " fill="#F54866" transform="translate(200,8)"/>
<path d="M0 0 C0 2.64 0 5.28 0 8 C3.63 8 7.26 8 11 8 C11 10.64 11 13.28 11 16 C7.37 16 3.74 16 0 16 C0.14040213 19.29198191 0.28706875 22.58347446 0.4375 25.875 C0.47681641 26.81214844 0.51613281 27.74929687 0.55664062 28.71484375 C0.59853516 29.61074219 0.64042969 30.50664062 0.68359375 31.4296875 C0.72025146 32.25710449 0.75690918 33.08452148 0.79467773 33.93701172 C0.88238327 36.06179429 0.88238327 36.06179429 2 38 C4.11846285 38.68729254 4.11846285 38.68729254 6.5625 39.125 C7.80193359 39.37636719 7.80193359 39.37636719 9.06640625 39.6328125 C10.02353516 39.81457031 10.02353516 39.81457031 11 40 C11 42.64 11 45.28 11 48 C5.24568766 48.47952603 0.94028632 47.97124897 -4.2734375 45.4609375 C-7.52701338 42.70791176 -8.84517581 39.69043401 -9.23339844 35.45166016 C-9.29501925 32.50345803 -9.26167155 29.57284382 -9.1875 26.625 C-9.17396484 25.60277344 -9.16042969 24.58054687 -9.14648438 23.52734375 C-9.11130217 21.01767951 -9.06207539 18.5091191 -9 16 C-11.31 16 -13.62 16 -16 16 C-14.57413334 11.38491678 -11.94611776 8.49171082 -8.5625 5.1875 C-8.07201172 4.68541016 -7.58152344 4.18332031 -7.07617188 3.66601562 C-3.38022959 0 -3.38022959 0 0 0 Z " fill="#F44966" transform="translate(399,0)"/>
<path d="M0 0 C0.99 0 1.98 0 3 0 C3 2.64 3 5.28 3 8 C6.96 8 10.92 8 15 8 C15 10.64 15 13.28 15 16 C11.04 16 7.08 16 3 16 C3.1140575 18.91747073 3.24080268 21.83344495 3.375 24.75 C3.4059375 25.575 3.436875 26.4 3.46875 27.25 C3.50742188 28.04921875 3.54609375 28.8484375 3.5859375 29.671875 C3.6173584 30.4050293 3.6487793 31.13818359 3.68115234 31.89355469 C4.04417878 34.29186408 4.71968936 35.94428996 6 38 C8.17208588 38.91160093 8.17208588 38.91160093 10.625 39.25 C11.44226563 39.39953125 12.25953125 39.5490625 13.1015625 39.703125 C13.72804687 39.80109375 14.35453125 39.8990625 15 40 C15 42.64 15 45.28 15 48 C8.06012795 48.42489013 2.75281757 48.00225405 -2.875 43.5 C-5.20696474 40.39071368 -5.11823938 37.401328 -5.09765625 33.67578125 C-5.09282227 32.13374023 -5.09282227 32.13374023 -5.08789062 30.56054688 C-5.07951172 29.48869141 -5.07113281 28.41683594 -5.0625 27.3125 C-5.05798828 26.22904297 -5.05347656 25.14558594 -5.04882812 24.02929688 C-5.03703743 21.35280915 -5.02058063 18.67643223 -5 16 C-7.31 16 -9.62 16 -12 16 C-11.44204986 12.21270207 -9.87689514 10.58053171 -7.125 8 C-4.9892682 5.98248214 -3.11352748 4.16266623 -1.4296875 1.75 C-0.95789063 1.1725 -0.48609375 0.595 0 0 Z " fill="#F44866" transform="translate(156,0)"/>
<path d="M0 0 C1.98 0 3.96 0 6 0 C6.66 1.32 7.32 2.64 8 4 C8.86625 3.2884375 8.86625 3.2884375 9.75 2.5625 C14.02182494 -0.4040451 17.87691175 -0.09852093 23 0 C23.09765625 6.15234375 23.09765625 6.15234375 23 8 C20.96473721 10.03526279 17.10725794 9.86791601 14.34765625 10.3046875 C11.65017477 10.83111044 11.65017477 10.83111044 10 14 C9.63155492 16.8086043 9.63155492 16.8086043 9.5859375 19.98046875 C9.52792969 21.72553711 9.52792969 21.72553711 9.46875 23.50585938 C9.42234375 25.32827148 9.42234375 25.32827148 9.375 27.1875 C9.31699219 29.02731445 9.31699219 29.02731445 9.2578125 30.90429688 C9.16343897 33.93604656 9.07785451 36.96778841 9 40 C6.03 40 3.06 40 0 40 C0 26.8 0 13.6 0 0 Z " fill="#F44966" transform="translate(174,8)"/>
<path d="M0 0 C0.66 0.66 1.32 1.32 2 2 C1.44444444 6.55555556 1.44444444 6.55555556 0 8 C-1.8125 8.1328125 -1.8125 8.1328125 -4 8.125 C-4.721875 8.12757812 -5.44375 8.13015625 -6.1875 8.1328125 C-8 8 -8 8 -9 7 C-9.04080783 5.00041636 -9.04254356 2.99954746 -9 1 C-5.98675805 -0.50662097 -3.31713623 -0.17770373 0 0 Z " fill="#F44866" transform="translate(9,37)"/>
</svg>
